PathFileType	4	(X/Y/Z)	C:\Users\Basilio\Documents\Thesis Gigler\squatting_fais\c3dfiles\040\SLS_pre_front1\markers_experimental.trc
DataRate	CameraRate	NumFrames	NumMarkers	Units	OrigDataRate	OrigDataStartFrame	OrigNumFrames
200.000000	200.000000	4	62	mm	200.000000	987	1129
Frame#	Time	FHD			LBHD			RBHD			C7			T10			CLAV			LSHO			LUUPA			LMUPA			LDUPA			LLEP			LMEP			LRAD			LUL			LRFIN			RSHO			RUPA1			RMUPA			RDUPA			RLEP			RMEP			RRAD			RUL			RUFIN			LASI			RASI			USACR			LSACR			RSACR			LTHI1			LTHI2			LTHI3			LTHI4			LLFC			LMFC			LTIB1			LTIB2			LTIB3			LTIB4			LLMAL			LMMAL			LHEE			LMT1			LMT2			LMT5			RTHI			RTHI2			RTHI3			RTHI4			RLFC			RMFC			RTIB1			RTIB2			RTIB3			RTIB4			RLMAL			RMMAL			RHEE			RMT1			RMT2			RMT5			*61			
		X1	Y1	Z1	X2	Y2	Z2	X3	Y3	Z3	X4	Y4	Z4	X5	Y5	Z5	X6	Y6	Z6	X7	Y7	Z7	X8	Y8	Z8	X9	Y9	Z9	X10	Y10	Z10	X11	Y11	Z11	X12	Y12	Z12	X13	Y13	Z13	X14	Y14	Z14	X15	Y15	Z15	X16	Y16	Z16	X17	Y17	Z17	X18	Y18	Z18	X19	Y19	Z19	X20	Y20	Z20	X21	Y21	Z21	X22	Y22	Z22	X23	Y23	Z23	X24	Y24	Z24	X25	Y25	Z25	X26	Y26	Z26	X27	Y27	Z27	X28	Y28	Z28	X29	Y29	Z29	X30	Y30	Z30	X31	Y31	Z31	X32	Y32	Z32	X33	Y33	Z33	X34	Y34	Z34	X35	Y35	Z35	X36	Y36	Z36	X37	Y37	Z37	X38	Y38	Z38	X39	Y39	Z39	X40	Y40	Z40	X41	Y41	Z41	X42	Y42	Z42	X43	Y43	Z43	X44	Y44	Z44	X45	Y45	Z45	X46	Y46	Z46	X47	Y47	Z47	X48	Y48	Z48	X49	Y49	Z49	X50	Y50	Z50	X51	Y51	Z51	X52	Y52	Z52	X53	Y53	Z53	X54	Y54	Z54	X55	Y55	Z55	X56	Y56	Z56	X57	Y57	Z57	X58	Y58	Z58	X59	Y59	Z59	X60	Y60	Z60	X61	Y61	Z61	X62	Y62	Z62	

988	4.935	-244.0389556884766	1771.661376953125	-1134.812866210938	-366.4241943359376	1723.162719726563	-1183.8974609375	-427.4534912109376	1684.711181640625	-1055.998291015625	-431.059295654297	1554.1640625	-1101.998046875	-422.3805236816407	1231.340454101563	-1095.43798828125	-292.8853454589844	1502.194702148438	-1104.616943359375	-351.7319641113282	1548.896118164063	-1250.656005859375	-193.9862213134766	1475.706176757813	-1325.085571289063	-162.5988159179688	1489.263549804688	-1289.687866210938	-127.4000396728516	1455.476928710938	-1326.518798828125	-72.9004592895508	1421.660400390625	-1324.993774414063	-89.60433197021486	1370.328491210938	-1284.6953125	181.9649810791016	1434.37353515625	-1186.96337890625	201.5361938476563	1432.26953125	-1260.062133789063	266.0056152343751	1453.012084960938	-1166.369995117188	-333.4575805664063	1531.117919921875	-957.500915527344	-183.7551879882813	1438.818969726563	-880.8627929687502	-150.7447662353516	1463.19580078125	-906.9736938476565	-116.4042053222657	1419.178955078125	-882.5292968750002	-54.49346923828126	1406.579467773438	-892.2150878906252	-68.27001953125001	1352.613891601563	-944.4795532226565	196.1517333984376	1460.472778320313	-1040.961181640625	214.3088684082032	1434.818359375	-969.8579711914065	290.8523254394532	1465.248046875	-1050.544555664063	-218.6837005615235	1076.901123046875	-1202.257202148438	-216.0198211669922	1089.603393554688	-971.4146118164065	-406.6099548339845	1098.469360351563	-1079.831298828125	-409.2958068847657	1068.117553710938	-1105.854370117188	-408.4603576660157	1069.34033203125	-1049.277465820313	-319.4330444335938	805.330261230469	-1227.940307617188	-273.9060363769532	733.2376098632814	-1231.8515625	-229.559799194336	741.6142578125001	-1240.386474609375	-289.3521423339844	679.4181518554689	-1213.186157226563	-259.8427734375001	548.6397705078126	-1196.439331054688	-246.8197784423829	540.5976562500001	-1066.0390625	-242.8294219970704	323.3629150390626	-1133.681884765625	-319.8211059570313	292.7178344726563	-1164.575805664063	-278.5585021972657	279.7884521484376	-1153.668334960938	-276.6111755371094	204.1789855957032	-1108.60791015625	-354.8283081054688	127.0912551879883	-1106.840087890625	-315.4174804687501	143.2848663330078	-1029.602661132813	-413.9958496093751	98.56530761718753	-1049.23828125	-200.011215209961	56.7551612854004	-1049.607666015625	-205.1628723144532	50.25957489013673	-1095.898559570313	-261.1963500976563	36.78898620605469	-1138.194458007813	-212.6677551269532	816.665710449219	-889.0927734375002	-164.3188171386719	771.302429199219	-897.356384277344	-133.8585510253907	781.821960449219	-905.9711914062502	-173.2098236083985	689.5223999023439	-911.0657958984377	-129.2904052734375	561.8248291015626	-925.2432250976565	-121.0330352783203	561.1855468750001	-1059.188842773438	-13.63980007171631	409.1343994140626	-949.5864868164065	-51.00180435180665	308.4938049316407	-931.7664794921877	-8.145743370056154	322.5232849121094	-939.1447753906252	28.56822395324708	288.9453125000001	-971.615661621094	23.49650001525879	162.2424774169922	-956.5925903320315	41.33079910278321	187.6589050292969	-1040.918579101563	-14.24565887451172	99.41078948974612	-1018.752319335938	197.6113739013672	167.4328918457032	-1012.966430664063	190.3756256103516	167.0989685058594	-972.7655029296877	157.5646514892578	125.5429611206055	-926.6019287109377	nan	nan	nan	
989	4.94	-243.9927215576172	1771.846801757813	-1134.95361328125	-366.3897705078126	1723.209838867188	-1184.0263671875	-427.3706665039064	1684.714965820313	-1056.090698242188	-431.0357360839845	1554.183837890625	-1102.16357421875	-422.4098510742189	1231.459838867188	-1095.418212890625	-293.0406799316407	1502.08349609375	-1104.677978515625	-351.5046997070313	1548.538452148438	-1250.912475585938	-194.4739990234376	1474.290283203125	-1325.552490234375	-162.1282653808594	1487.17822265625	-1290.659301757813	-127.9150924682617	1453.322021484375	-1327.416748046875	-73.9287567138672	1419.238525390625	-1326.033447265625	-90.2392044067383	1367.387939453125	-1285.614501953125	181.3275909423828	1431.289306640625	-1187.740844726563	200.7100219726563	1428.532470703125	-1260.737182617188	265.2554016113282	1449.755737304688	-1167.298461914063	-333.5917053222657	1530.869262695313	-957.4918212890627	-183.9831237792969	1437.413696289063	-880.6333007812502	-151.0525207519532	1461.287353515625	-906.3649902343752	-116.8892517089844	1417.563354492188	-881.7333984375002	-55.32887268066408	1404.212036132813	-891.5593261718752	-69.15122985839845	1350.368530273438	-943.8770751953127	195.3288574218751	1457.521240234375	-1040.631469726563	213.5555725097657	1431.405883789063	-969.8594360351565	289.9841918945313	1461.959350585938	-1050.137939453125	-218.7735290527344	1076.996337890625	-1202.259521484375	-216.002426147461	1089.634521484375	-971.4214477539065	-406.6791992187501	1098.578979492188	-1079.818969726563	-409.3059387207032	1068.2021484375	-1105.866821289063	-408.4462890625001	1069.474609375	-1049.2255859375	-319.6026916503907	805.443054199219	-1227.966918945313	-274.0233459472657	733.2846069335939	-1231.952270507813	-229.6834106445313	741.6573486328126	-1240.488525390625	-289.4884338378907	679.4942016601564	-1213.25927734375	-260.7553405761719	549.2373046875001	-1196.65576171875	-246.7792968750001	540.6773681640626	-1066.216674804688	-242.9342193603516	323.4311523437501	-1134.070922851563	-320.0081787109376	292.8301696777344	-1164.67919921875	-278.8554382324219	279.8605957031251	-1153.951049804688	-277.0316772460938	204.8505249023438	-1108.615478515625	-354.8871154785157	127.1555252075196	-1106.892456054688	-315.3667602539063	143.4317169189453	-1029.810668945313	-414.0186157226564	98.57743072509768	-1049.317260742188	-199.9960327148438	56.78684616088869	-1049.683837890625	-205.1524353027344	50.13974761962892	-1095.96142578125	-261.1755676269532	36.73039627075196	-1138.227294921875	-212.5868225097657	816.819274902344	-889.053161621094	-164.2304229736328	771.3328247070315	-897.4418945312502	-133.5363464355469	781.9757080078127	-906.145690917969	-173.2029724121094	689.5972900390626	-911.0171508789065	-129.0666961669922	561.8748779296876	-925.210632324219	-121.0123138427735	561.3160400390626	-1059.15478515625	-13.55377769470215	409.1861877441407	-949.6134033203127	-50.85889053344728	308.5552368164063	-931.6569824218752	-7.983418941497805	322.7299194335938	-939.0742797851565	28.7861671447754	289.0371093750001	-971.6450195312502	24.18897247314454	162.8282775878907	-956.2484130859377	41.53625869750977	187.7491455078125	-1040.707153320313	-14.13000583648682	99.52655029296878	-1018.500671386719	197.5937500000001	167.5029449462891	-1013.111694335938	190.5865325927735	167.2743225097657	-972.847106933594	157.7212219238282	125.9513778686524	-926.6528320312502	nan	nan	nan	
990	4.945	-243.9415893554688	1771.916137695313	-1135.075439453125	-366.2633666992188	1723.24462890625	-1184.126098632813	-427.2944641113282	1684.739868164063	-1056.20361328125	-430.9797363281251	1554.231811523438	-1102.30859375	-422.3664550781251	1231.516845703125	-1095.41845703125	-293.1647033691407	1502.076049804688	-1104.690673828125	-351.3564453125001	1548.27734375	-1251.155883789063	-194.6449584960938	1472.313720703125	-1326.376098632813	-162.7319793701172	1485.516235351563	-1291.236206054688	-128.5163879394532	1451.038330078125	-1328.440063476563	-74.51560211181642	1416.435668945313	-1327.258178710938	-91.23214721679689	1364.654174804688	-1286.411865234375	180.2249145507813	1427.654541015625	-1188.7197265625	199.6360321044922	1424.892211914063	-1261.702758789063	264.3622436523438	1446.381958007813	-1168.315795898438	-333.6259155273438	1530.67724609375	-957.458190917969	-184.692367553711	1435.712158203125	-880.1572875976565	-151.3379058837891	1459.572265625	-905.7872314453127	-117.5071868896485	1415.357788085938	-880.9620361328127	-55.85469436645509	1400.721557617188	-890.680114746094	-69.6940155029297	1347.545532226563	-944.2900390625002	194.2333374023438	1454.396850585938	-1040.203247070313	211.8047943115235	1427.4794921875	-970.030212402344	288.8319091796876	1459.544555664063	-1049.859130859375	-218.7962799072266	1077.115234375	-1202.287963867188	-215.9747161865235	1089.694091796875	-971.492370605469	-406.5958251953126	1098.734741210938	-1079.840698242188	-409.3597717285157	1068.308959960938	-1105.800537109375	-408.3735656738282	1069.59130859375	-1049.19873046875	-319.7459106445313	805.5378417968752	-1228.02001953125	-274.2020874023438	733.3392333984376	-1232.06201171875	-229.8805236816407	741.8275146484376	-1240.622680664063	-289.6221008300782	679.6240234375001	-1213.315673828125	-260.2523498535157	548.9273681640626	-1196.644775390625	-246.7417602539063	540.6894531250001	-1066.347900390625	-243.5180358886719	324.2047729492188	-1134.044555664063	-320.0741271972657	292.8630981445313	-1164.823608398438	-278.8453063964844	280.0444641113282	-1154.068359375	-277.2054138183594	204.9146118164063	-1108.873779296875	-354.7858276367188	127.1307830810547	-1106.9130859375	-315.0487670898438	143.1354370117188	-1030.057983398438	-414.0713195800782	98.62750244140628	-1049.31640625	-199.9584503173829	56.95534515380861	-1049.779296875	-205.4906158447266	49.39803314208986	-1095.968505859375	-261.2025756835938	36.70397949218751	-1138.216430664063	-212.5342407226563	816.935729980469	-889.027770996094	-163.9531555175782	771.5158691406252	-897.5164794921877	-133.3626403808594	782.1689453125002	-906.2256469726565	-173.1458282470703	689.6624755859376	-910.9571533203127	-128.9035034179688	562.0173339843751	-925.1519775390627	-121.0386123657227	561.2810058593751	-1059.128295898438	-13.46073436737061	409.2434997558595	-949.6278076171877	-50.62416076660158	308.7457885742188	-931.5903320312502	-7.306493759155275	323.0791931152344	-938.279968261719	28.86658477783204	289.0845031738282	-971.5593261718752	24.47877311706544	163.1396789550782	-956.2610473632815	41.56406402587891	188.0670776367188	-1040.6611328125	-14.11669635772705	99.51346588134768	-1018.202697753906	197.6134643554688	167.5138702392578	-1013.243530273438	190.5936889648438	167.474838256836	-973.0103759765627	157.8967895507813	126.082633972168	-926.637390136719	nan	nan	nan	
991	4.95	-243.7994079589844	1772.051391601563	-1135.105102539063	-366.2424926757813	1723.261474609375	-1184.236206054688	-427.1414794921876	1684.816528320313	-1056.34375	-430.9486694335939	1554.251953125	-1102.5087890625	-422.3600158691407	1231.574584960938	-1095.41259765625	-293.2465515136719	1502.056518554688	-1104.731201171875	-351.1839599609376	1548.101196289063	-1251.4462890625	-195.2411041259766	1470.713134765625	-1327.104125976563	-162.5226745605469	1483.339965820313	-1292.213623046875	-129.0595245361328	1448.6005859375	-1329.295043945313	-75.59291839599611	1413.676147460938	-1328.392944335938	-92.4296112060547	1362.12744140625	-1287.928100585938	179.0992279052735	1424.183471679688	-1189.530029296875	198.7273254394532	1420.85302734375	-1262.430297851563	263.6098937988282	1442.736328125	-1169.2431640625	-333.6360778808594	1530.541870117188	-957.4205322265627	-185.5573425292969	1433.663208007813	-879.5687255859377	-151.7993316650391	1457.451538085938	-905.152282714844	-118.8311233520508	1412.647094726563	-880.1567993164065	-56.91091918945314	1399.02734375	-890.126892089844	-71.49668121337892	1344.804809570313	-942.5695800781252	193.1137695312501	1451.1376953125	-1039.952758789063	211.5896759033204	1424.13134765625	-969.3983154296877	287.2345886230469	1456.70458984375	-1049.8603515625	-218.8884735107422	1077.201782226563	-1202.330688476563	-215.9192047119141	1089.683715820313	-971.6013793945315	-406.5240173339845	1098.764038085938	-1079.838623046875	-409.3699951171876	1068.422607421875	-1105.818481445313	-408.4099731445314	1069.662231445313	-1049.175537109375	-319.9063720703126	805.5946044921877	-1228.098999023438	-274.3713378906251	733.3649291992189	-1232.158813476563	-230.1377105712891	741.9367675781251	-1240.748657226563	-289.9543457031251	679.7263793945314	-1213.410766601563	-260.7969055175782	549.1690063476564	-1196.748291015625	-246.8445434570313	540.8437500000001	-1066.427734375	-243.788070678711	324.1443481445313	-1134.143188476563	-320.2793579101563	292.8763427734376	-1164.939453125	-278.8894042968751	280.1901550292969	-1154.124267578125	-277.3243103027344	204.8527069091797	-1108.932006835938	-354.5549621582032	127.1149520874024	-1106.9453125	-315.0078735351563	143.1326904296875	-1030.189208984375	-414.0177612304689	98.60927581787112	-1049.383666992188	-199.6902618408204	56.64340972900392	-1049.801635742188	-205.2679443359376	49.65711593627931	-1096.116455078125	-261.1211242675782	36.62618637084962	-1138.246215820313	-212.2871246337891	817.1307373046877	-889.0247802734377	-163.8445129394532	771.7352294921877	-897.3714599609377	-133.2909393310547	782.2539062500002	-906.3472900390627	-173.0556945800782	689.7210693359376	-910.9424438476565	-128.8135375976563	562.1212158203126	-925.1115722656252	-120.9717407226563	561.3162231445314	-1059.117797851563	-13.21879768371582	409.1986083984376	-949.6488037109377	-50.44255828857423	308.8067626953126	-931.511413574219	-7.241866588592531	323.1931762695313	-938.245056152344	28.92383384704591	289.1113281250001	-971.5176391601565	23.99628067016602	162.8848114013672	-956.5320434570315	41.55364990234376	188.2664947509766	-1040.515014648438	-14.06076908111573	99.58563232421878	-1017.956665039063	197.7811279296876	167.4381713867188	-1013.332092285156	190.6014251708985	167.5428619384766	-973.115173339844	158.1093444824219	125.9189910888672	-926.5913085937502	nan	nan	nan	
